<svg id="e25ca42b-78d0-44a3-a68a-74f7ce773fbd" data-name="Layer 1" xmlns="http://www.w3.org/2000/svg" xmlns:xlink="http://www.w3.org/1999/xlink" width="1920" height="997.4" viewBox="0 0 1920 997.4">
  <defs>
    <linearGradient id="gradient-1" x1="644.7" y1="-173.23" x2="626.32" y2="-453.57" gradientTransform="translate(0 984)" gradientUnits="userSpaceOnUse">
      <stop offset="0" stop-color="#42b8ce"/>
      <stop offset="1" stop-color="#3d6d9a"/>
    </linearGradient>
    <linearGradient id="gradient-2" x1="1741.78" y1="89.3" x2="1723.39" y2="-60.83" xlink:href="#gradient-1"/>
    <linearGradient id="gradient-3" x1="789.79" y1="738.2" x2="425.36" y2="511.29" gradientUnits="userSpaceOnUse">
      <stop offset="0" stop-color="#44ebe4"/>
      <stop offset="1" stop-color="#17ffa6"/>
    </linearGradient>
    <linearGradient id="gradient-4" x1="2272.92" y1="-41.25" x2="443.82" y2="-825.59" gradientTransform="translate(0 984)" gradientUnits="userSpaceOnUse">
      <stop offset="0" stop-color="#42b8ce"/>
      <stop offset="1" stop-color="#3d6e9a"/>
      <stop offset="1" stop-color="#3d6d9a"/>
    </linearGradient>
    <clipPath id="shape-1">
      <path d="M835.1,497.8,327.6,553.6c1.2,0-197.6,33.1-327.6,54.7V719.8c54.4,28,127.9,44.9,218.6,18,210.5-62.6,312,48.4,410.2-36s219.1-33.6,375.4-24.3,247.3-53.6,265.1-73.2S835.1,497.8,835.1,497.8Z"></path>
    </clipPath>
    <clipPath id="shape-2">
      <path d="M1920,753.8c-69.3,11.7-426,71-426,71S1612.2,998.5,1822.6,936a482.68,482.68,0,0,1,97.4-18.6Z"></path>
    </clipPath>
    <clipPath id="shape-3">
      <path d="M69.89,583.31c32.51,48.37,55.69,93.19,120,93.19,101.3,0,190.6,94.1,289.5,95.4,108.4,1.4,178.4-40.9,275-40.9,107.5,0,266.9-67,317.7,55.8l.69-203.49Z"></path>
    </clipPath>
    <clipPath id="shape-4">
      <path d="M0,0V759.5c176.9-72.8,385.4-156.7,547.8-38.8,208.5,151.4,369.7,91,445.8,111,99.3,26.1,76.6,105,211.4,142.6,140.2,39.1,392.3-56.6,496.2-68.7,80.9-9.5,163.4.3,218.8,34.8V0Z"></path>
    </clipPath>
    <filter id="noise">
      <feTurbulence type="fractalNoise" baseFrequency="300" result="noisy" />
      <feColorMatrix type="saturate" values="0"/>
      <feBlend in="SourceGraphic" in2="noisy" mode="multiply" />
    </filter>
  </defs>
  <path filter="url(#noise)" clip-path="url(#shape-1)" d="M835.1,497.8,327.6,553.6c1.2,0-197.6,33.1-327.6,54.7V719.8c54.4,28,127.9,44.9,218.6,18,210.5-62.6,312,48.4,410.2-36s219.1-33.6,375.4-24.3,247.3-53.6,265.1-73.2S835.1,497.8,835.1,497.8Z" style="fill:url(#gradient-1)"/>
  <path filter="url(#noise)" clip-path="url(#shape-2)" d="M1920,753.8c-69.3,11.7-426,71-426,71S1612.2,998.5,1822.6,936a482.68,482.68,0,0,1,97.4-18.6Z" style="fill:url(#gradient-2)"/>
  <path filter="url(#noise)" clip-path="url(#shape-3)" d="M69.89,583.31c32.51,48.37,55.69,93.19,120,93.19,101.3,0,190.6,94.1,289.5,95.4,108.4,1.4,178.4-40.9,275-40.9,107.5,0,266.9-67,317.7,55.8l.69-203.49Z" style="fill:url(#gradient-3)"/>
  <path filter="url(#noise)" clip-path="url(#shape-4)" d="M0,0V759.5c176.9-72.8,385.4-156.7,547.8-38.8,208.5,151.4,369.7,91,445.8,111,99.3,26.1,76.6,105,211.4,142.6,140.2,39.1,392.3-56.6,496.2-68.7,80.9-9.5,163.4.3,218.8,34.8V0Z" style="fill:url(#gradient-4)"/>
</svg>